<svg xmlns="http://www.w3.org/2000/svg" viewBox="0 0 100 100">
  <!-- AF Monogram with Leaf Detail -->
  <g fill="#FEFEFE">
    <!-- Letter A -->
    <path d="M20 85 L35 30 L50 30 L65 85 L55 85 L52 72 L33 72 L30 85 Z M36 62 L49 62 L42.5 40 Z"/>

    <!-- Letter F -->
    <path d="M68 85 L68 30 L88 30 L88 40 L78 40 L78 52 L86 52 L86 62 L78 62 L78 85 Z"/>

    <!-- Maple Leaf Accent -->
    <path d="M42 20 L44 12 L46 20 L52 18 L48 24 L54 28 L46 26 L44 32 L42 26 L34 28 L40 24 L36 18 Z"/>
  </g>
</svg>
